<?xml version="1.0" encoding="UTF-8"?>
<svg xmlns="http://www.w3.org/2000/svg" width="1024" height="1024" viewBox="0 0 1024 1024" role="img" aria-labelledby="title desc">
  <title id="title">CNSnap vivid app icon</title>
  <desc id="desc">A bright saturated CNSnap rounded-square app icon with a large original wordmark over vivid red and blue background fields.</desc>
  <defs>
    <clipPath id="radius">
      <rect width="1024" height="1024" rx="224" ry="224"/>
    </clipPath>
    <linearGradient id="blue-field" x1="120" y1="0" x2="930" y2="1024" gradientUnits="userSpaceOnUse">
      <stop offset="0" stop-color="#00B8FF"/>
      <stop offset="0.58" stop-color="#0A83FF"/>
      <stop offset="1" stop-color="#0058E6"/>
    </linearGradient>
    <linearGradient id="red-field" x1="0" y1="160" x2="720" y2="940" gradientUnits="userSpaceOnUse">
      <stop offset="0" stop-color="#FF2B2B"/>
      <stop offset="0.55" stop-color="#F00000"/>
      <stop offset="1" stop-color="#C90000"/>
    </linearGradient>
    <filter id="logo-shadow" x="-10%" y="-24%" width="120%" height="160%" color-interpolation-filters="sRGB">
      <feDropShadow dx="0" dy="24" stdDeviation="20" flood-color="#001E3A" flood-opacity="0.30"/>
    </filter>
  </defs>
  <g clip-path="url(#radius)">
    <rect width="1024" height="1024" fill="url(#blue-field)"/>
    <path d="M 0 0 H 544 C 466 134 432 274 443 421 C 455 582 404 724 289 846 C 233 906 172 964 125 1024 H 0 Z" fill="url(#red-field)"/>
    <path d="M 1024 0 V 1024 H 674 C 758 884 793 730 774 562 C 755 395 801 251 912 129 C 951 86 987 45 1024 0 Z" fill="#19C8FF" opacity="0.56"/>
    <path d="M 70 0 C 212 158 225 343 107 548 C 64 623 31 702 0 790 V 0 Z" fill="#FF4B4B" opacity="0.24"/>
    <rect x="15" y="15" width="994" height="994" rx="210" ry="210" fill="none" stroke="#FFFFFF" stroke-width="3" opacity="0.35"/>
  </g>
  <g filter="url(#logo-shadow)" transform="translate(30.750 384.438) scale(0.625)">
    <path fill="none" stroke="#FFFFFF" stroke-width="34" stroke-linejoin="round" stroke-linecap="round" opacity="0.98" d="M 165.500 21.674 C 127.003 26.478, 82.977 54.799, 53.845 93.500 C 22.474 135.174, 9.371 195.601, 21.535 242.500 C 35.187 295.138, 81.610 336.512, 144.922 352.466 C 157.380 355.605, 170.404 357.811, 181 358.576 C 204.149 360.247, 252.796 349.453, 279 336.830 C 286.097 333.412, 289.081 331.148, 297.080 323.118 C 308.293 311.862, 311 307.047, 311 298.362 C 311 290.138, 308.654 283.943, 303.271 277.956 C 292.507 265.984, 283.366 265.365, 253.282 274.571 C 234.379 280.355, 224.082 282.784, 211 284.547 C 170.045 290.063, 130.942 278.350, 106.897 253.362 C 85.526 231.152, 79.328 204.216, 87.906 170.835 C 91.486 156.903, 94.945 148.971, 102.555 137.249 C 120.990 108.849, 141.317 91.194, 164.500 83.446 C 170.968 81.284, 174.989 80.675, 185.500 80.267 C 200.145 79.697, 208.734 81.009, 223.723 86.104 C 228.550 87.746, 235.875 90.216, 240 91.594 C 244.125 92.972, 250.650 94.337, 254.500 94.628 C 263.337 95.294, 269.242 92.671, 272.795 86.500 C 282.755 69.204, 255.022 39.098, 217.980 26.994 C 203.228 22.173, 180.205 19.839, 165.500 21.674 M 588.270 30.025 C 573.749 32.990, 565.676 42.173, 560.156 62.005 C 556.400 75.497, 555.699 87.408, 552.911 185 C 552.291 206.725, 551.488 226.010, 551.127 227.856 C 550.561 230.750, 549.793 231.469, 545.544 233.082 C 542.835 234.110, 540.557 234.850, 540.483 234.726 C 540.408 234.602, 532.957 224.902, 523.924 213.172 C 487.318 165.634, 471.525 144.970, 451.500 118.407 C 439.950 103.086, 426.631 85.805, 421.902 80.005 C 403.588 57.543, 384.681 49.813, 367.602 57.806 C 352.987 64.645, 346.047 77.204, 343.998 100.521 C 339.213 154.981, 341.028 225.130, 349.066 296.408 C 351.289 316.119, 353.338 323.657, 358.648 331.658 C 362.969 338.167, 370.895 342.603, 376.562 341.684 C 389.581 339.571, 396.367 326.193, 397.453 300.500 C 399.110 261.297, 401.006 209.752, 401.617 187.306 L 402.302 162.112 406.401 164.964 C 413.126 169.642, 416.651 174.052, 440.003 207 C 462.571 238.840, 471.800 251.170, 481.918 263 C 507.605 293.032, 526.638 309.344, 548.500 320.062 C 590.212 340.513, 617.662 325.183, 622.926 278.500 C 624.819 261.710, 628.545 105.910, 627.717 78.182 C 627.012 54.589, 624.728 46.926, 615.833 38.298 C 608.556 31.241, 597.933 28.052, 588.270 30.025"/>
    <path fill="none" stroke="#FFFFFF" stroke-width="34" stroke-linejoin="round" stroke-linecap="round" opacity="0.98" d="M 749.500 41.109 C 721.958 45.077, 690.374 62.148, 674.721 81.525 C 655.770 104.984, 653.842 136.111, 669.737 162 C 675.533 171.442, 693.167 189.024, 706.069 198.227 C 718.287 206.942, 740.025 217.920, 753.112 221.986 C 766.615 226.181, 774.125 230.059, 780.594 236.178 C 785.655 240.963, 793.147 253.187, 791.828 254.505 C 791.482 254.851, 787.217 256.259, 782.349 257.633 C 767.998 261.685, 757.793 261.239, 735.500 255.585 C 715.791 250.586, 708.795 249.996, 699.932 252.588 C 672.524 260.603, 667.183 291.019, 689.075 314.421 C 703.017 329.325, 718.835 338.273, 735.107 340.460 C 748.002 342.194, 790.619 336.705, 809.474 330.883 C 836.624 322.499, 852.207 307.614, 858.570 283.983 C 860.779 275.780, 860.862 259.108, 858.741 249.454 C 854.211 228.838, 845.173 212.324, 830 196.944 C 815.282 182.024, 810.121 178.813, 771.500 160.545 C 746.824 148.873, 723.180 134.007, 720.581 128.530 C 716.263 119.430, 720.811 113.151, 737.991 104.490 C 764.982 90.884, 789.434 90.874, 826.945 104.454 C 838.149 108.510, 843.908 106.337, 845.581 97.422 C 846.483 92.610, 844.327 81.564, 841.215 75.060 C 837.164 66.591, 824.395 54.230, 815 49.682 C 798.432 41.661, 770.782 38.042, 749.500 41.109 M 1205 132.068 C 1170.336 141.120, 1134.341 176.574, 1121.312 214.500 C 1117.473 225.674, 1116 234.363, 1116 245.835 C 1116 277.420, 1134.209 301.016, 1163.637 307.563 C 1173.865 309.838, 1188.197 308.990, 1198.614 305.494 C 1208.152 302.292, 1228.274 292.201, 1234.315 287.589 C 1236.901 285.615, 1239.377 284, 1239.816 284 C 1240.255 284, 1242.706 286.849, 1245.263 290.332 C 1254.039 302.283, 1263.623 309.990, 1272.298 312.071 C 1287.140 315.632, 1302.214 307.121, 1306.474 292.774 C 1309.056 284.081, 1308.389 274.160, 1303.553 249.332 C 1301.106 236.774, 1296.787 214.591, 1293.953 200.035 C 1285.991 159.130, 1285.259 157.505, 1270.099 147.122 C 1247.321 131.521, 1225.989 126.588, 1205 132.068 M 998.225 145.522 C 985.466 148.293, 973.767 155.353, 956.279 170.836 C 951.207 175.326, 946.862 179, 946.623 179 C 946.384 179, 944.798 175.155, 943.098 170.456 C 939.202 159.690, 937.869 157.156, 934.339 153.803 C 927.839 147.629, 918.671 146.355, 910.446 150.483 C 904.888 153.273, 901.553 157.547, 899.377 164.669 C 896.728 173.340, 891.863 243.924, 891.635 277 C 891.509 295.213, 891.647 296.819, 893.729 301.330 C 897.527 309.560, 901.504 313.646, 909.618 317.656 C 916.221 320.919, 918.008 321.362, 924.801 321.418 C 931.336 321.472, 933.391 321.045, 938.394 318.597 C 949.508 313.157, 955.078 305.324, 959.449 288.992 C 962.620 277.143, 965.192 270.373, 970.631 259.555 C 979.435 242.045, 995.526 219.322, 1004.889 211.178 L 1010.841 206.001 1011.388 208.750 C 1012.826 215.985, 1014.199 225.381, 1016.979 247 C 1022.149 287.204, 1024.729 296.070, 1033.508 303.798 C 1047.991 316.546, 1070.997 311.969, 1079.469 294.654 C 1082.891 287.658, 1084.957 271.843, 1084.975 252.500 C 1084.997 228.324, 1081.210 209.664, 1072.579 191.414 C 1055.581 155.473, 1028.727 138.898, 998.225 145.522 M 1433 150.968 C 1424.172 152.865, 1414.413 156.264, 1400.161 162.406 C 1395.575 164.383, 1391.266 166, 1390.586 166 C 1389.905 166, 1388.258 164.830, 1386.924 163.401 C 1383.766 160.015, 1375.817 155.999, 1372.283 156.004 C 1368.498 156.009, 1363.428 159.272, 1361.543 162.916 C 1359.416 167.029, 1357.697 174.910, 1353.559 199.500 C 1351.616 211.050, 1348.890 225.163, 1347.501 230.861 C 1339.625 263.189, 1338.828 275.033, 1339.282 353 C 1339.647 415.516, 1339.721 417.642, 1341.716 422.122 C 1350.007 440.742, 1372.499 446.595, 1389.187 434.476 C 1394.894 430.331, 1398.867 423.805, 1401.346 414.503 C 1402.962 408.440, 1403.283 402.297, 1403.737 368.724 C 1404.212 333.612, 1404.414 329.992, 1405.881 330.416 C 1406.771 330.673, 1412.422 331.637, 1418.438 332.556 C 1467.265 340.021, 1515.800 307.714, 1521.914 263.678 C 1525.421 238.421, 1520.712 211.009, 1508.915 188 C 1492.876 156.719, 1466.379 143.794, 1433 150.968 M 1216.196 183.443 C 1207.965 187.879, 1199.910 194.148, 1194.357 200.440 C 1183.619 212.608, 1174.051 232.220, 1174.018 242.128 C 1173.996 249.097, 1175.234 250.286, 1182.513 250.286 C 1202.447 250.286, 1224.211 222.942, 1225.006 196.901 C 1225.373 184.877, 1225.010 180, 1223.750 180.023 C 1223.063 180.035, 1219.663 181.574, 1216.196 183.443 M 1440 201.236 C 1424.990 206.531, 1414.641 217.273, 1404.522 238.063 C 1398.140 251.177, 1398.288 256.576, 1405.126 260.064 C 1413.995 264.589, 1443.172 265.379, 1452.089 261.336 C 1463.031 256.374, 1467.529 247.739, 1467.373 232 C 1467.093 203.876, 1458.834 194.593, 1440 201.236"/>
    <path fill="#E00000" fill-rule="evenodd" d="M 165.500 21.674 C 127.003 26.478, 82.977 54.799, 53.845 93.500 C 22.474 135.174, 9.371 195.601, 21.535 242.500 C 35.187 295.138, 81.610 336.512, 144.922 352.466 C 157.380 355.605, 170.404 357.811, 181 358.576 C 204.149 360.247, 252.796 349.453, 279 336.830 C 286.097 333.412, 289.081 331.148, 297.080 323.118 C 308.293 311.862, 311 307.047, 311 298.362 C 311 290.138, 308.654 283.943, 303.271 277.956 C 292.507 265.984, 283.366 265.365, 253.282 274.571 C 234.379 280.355, 224.082 282.784, 211 284.547 C 170.045 290.063, 130.942 278.350, 106.897 253.362 C 85.526 231.152, 79.328 204.216, 87.906 170.835 C 91.486 156.903, 94.945 148.971, 102.555 137.249 C 120.990 108.849, 141.317 91.194, 164.500 83.446 C 170.968 81.284, 174.989 80.675, 185.500 80.267 C 200.145 79.697, 208.734 81.009, 223.723 86.104 C 228.550 87.746, 235.875 90.216, 240 91.594 C 244.125 92.972, 250.650 94.337, 254.500 94.628 C 263.337 95.294, 269.242 92.671, 272.795 86.500 C 282.755 69.204, 255.022 39.098, 217.980 26.994 C 203.228 22.173, 180.205 19.839, 165.500 21.674 M 588.270 30.025 C 573.749 32.990, 565.676 42.173, 560.156 62.005 C 556.400 75.497, 555.699 87.408, 552.911 185 C 552.291 206.725, 551.488 226.010, 551.127 227.856 C 550.561 230.750, 549.793 231.469, 545.544 233.082 C 542.835 234.110, 540.557 234.850, 540.483 234.726 C 540.408 234.602, 532.957 224.902, 523.924 213.172 C 487.318 165.634, 471.525 144.970, 451.500 118.407 C 439.950 103.086, 426.631 85.805, 421.902 80.005 C 403.588 57.543, 384.681 49.813, 367.602 57.806 C 352.987 64.645, 346.047 77.204, 343.998 100.521 C 339.213 154.981, 341.028 225.130, 349.066 296.408 C 351.289 316.119, 353.338 323.657, 358.648 331.658 C 362.969 338.167, 370.895 342.603, 376.562 341.684 C 389.581 339.571, 396.367 326.193, 397.453 300.500 C 399.110 261.297, 401.006 209.752, 401.617 187.306 L 402.302 162.112 406.401 164.964 C 413.126 169.642, 416.651 174.052, 440.003 207 C 462.571 238.840, 471.800 251.170, 481.918 263 C 507.605 293.032, 526.638 309.344, 548.500 320.062 C 590.212 340.513, 617.662 325.183, 622.926 278.500 C 624.819 261.710, 628.545 105.910, 627.717 78.182 C 627.012 54.589, 624.728 46.926, 615.833 38.298 C 608.556 31.241, 597.933 28.052, 588.270 30.025"/>
    <path fill="#44C9FF" fill-rule="evenodd" d="M 749.500 41.109 C 721.958 45.077, 690.374 62.148, 674.721 81.525 C 655.770 104.984, 653.842 136.111, 669.737 162 C 675.533 171.442, 693.167 189.024, 706.069 198.227 C 718.287 206.942, 740.025 217.920, 753.112 221.986 C 766.615 226.181, 774.125 230.059, 780.594 236.178 C 785.655 240.963, 793.147 253.187, 791.828 254.505 C 791.482 254.851, 787.217 256.259, 782.349 257.633 C 767.998 261.685, 757.793 261.239, 735.500 255.585 C 715.791 250.586, 708.795 249.996, 699.932 252.588 C 672.524 260.603, 667.183 291.019, 689.075 314.421 C 703.017 329.325, 718.835 338.273, 735.107 340.460 C 748.002 342.194, 790.619 336.705, 809.474 330.883 C 836.624 322.499, 852.207 307.614, 858.570 283.983 C 860.779 275.780, 860.862 259.108, 858.741 249.454 C 854.211 228.838, 845.173 212.324, 830 196.944 C 815.282 182.024, 810.121 178.813, 771.500 160.545 C 746.824 148.873, 723.180 134.007, 720.581 128.530 C 716.263 119.430, 720.811 113.151, 737.991 104.490 C 764.982 90.884, 789.434 90.874, 826.945 104.454 C 838.149 108.510, 843.908 106.337, 845.581 97.422 C 846.483 92.610, 844.327 81.564, 841.215 75.060 C 837.164 66.591, 824.395 54.230, 815 49.682 C 798.432 41.661, 770.782 38.042, 749.500 41.109 M 1205 132.068 C 1170.336 141.120, 1134.341 176.574, 1121.312 214.500 C 1117.473 225.674, 1116 234.363, 1116 245.835 C 1116 277.420, 1134.209 301.016, 1163.637 307.563 C 1173.865 309.838, 1188.197 308.990, 1198.614 305.494 C 1208.152 302.292, 1228.274 292.201, 1234.315 287.589 C 1236.901 285.615, 1239.377 284, 1239.816 284 C 1240.255 284, 1242.706 286.849, 1245.263 290.332 C 1254.039 302.283, 1263.623 309.990, 1272.298 312.071 C 1287.140 315.632, 1302.214 307.121, 1306.474 292.774 C 1309.056 284.081, 1308.389 274.160, 1303.553 249.332 C 1301.106 236.774, 1296.787 214.591, 1293.953 200.035 C 1285.991 159.130, 1285.259 157.505, 1270.099 147.122 C 1247.321 131.521, 1225.989 126.588, 1205 132.068 M 998.225 145.522 C 985.466 148.293, 973.767 155.353, 956.279 170.836 C 951.207 175.326, 946.862 179, 946.623 179 C 946.384 179, 944.798 175.155, 943.098 170.456 C 939.202 159.690, 937.869 157.156, 934.339 153.803 C 927.839 147.629, 918.671 146.355, 910.446 150.483 C 904.888 153.273, 901.553 157.547, 899.377 164.669 C 896.728 173.340, 891.863 243.924, 891.635 277 C 891.509 295.213, 891.647 296.819, 893.729 301.330 C 897.527 309.560, 901.504 313.646, 909.618 317.656 C 916.221 320.919, 918.008 321.362, 924.801 321.418 C 931.336 321.472, 933.391 321.045, 938.394 318.597 C 949.508 313.157, 955.078 305.324, 959.449 288.992 C 962.620 277.143, 965.192 270.373, 970.631 259.555 C 979.435 242.045, 995.526 219.322, 1004.889 211.178 L 1010.841 206.001 1011.388 208.750 C 1012.826 215.985, 1014.199 225.381, 1016.979 247 C 1022.149 287.204, 1024.729 296.070, 1033.508 303.798 C 1047.991 316.546, 1070.997 311.969, 1079.469 294.654 C 1082.891 287.658, 1084.957 271.843, 1084.975 252.500 C 1084.997 228.324, 1081.210 209.664, 1072.579 191.414 C 1055.581 155.473, 1028.727 138.898, 998.225 145.522 M 1433 150.968 C 1424.172 152.865, 1414.413 156.264, 1400.161 162.406 C 1395.575 164.383, 1391.266 166, 1390.586 166 C 1389.905 166, 1388.258 164.830, 1386.924 163.401 C 1383.766 160.015, 1375.817 155.999, 1372.283 156.004 C 1368.498 156.009, 1363.428 159.272, 1361.543 162.916 C 1359.416 167.029, 1357.697 174.910, 1353.559 199.500 C 1351.616 211.050, 1348.890 225.163, 1347.501 230.861 C 1339.625 263.189, 1338.828 275.033, 1339.282 353 C 1339.647 415.516, 1339.721 417.642, 1341.716 422.122 C 1350.007 440.742, 1372.499 446.595, 1389.187 434.476 C 1394.894 430.331, 1398.867 423.805, 1401.346 414.503 C 1402.962 408.440, 1403.283 402.297, 1403.737 368.724 C 1404.212 333.612, 1404.414 329.992, 1405.881 330.416 C 1406.771 330.673, 1412.422 331.637, 1418.438 332.556 C 1467.265 340.021, 1515.800 307.714, 1521.914 263.678 C 1525.421 238.421, 1520.712 211.009, 1508.915 188 C 1492.876 156.719, 1466.379 143.794, 1433 150.968 M 1216.196 183.443 C 1207.965 187.879, 1199.910 194.148, 1194.357 200.440 C 1183.619 212.608, 1174.051 232.220, 1174.018 242.128 C 1173.996 249.097, 1175.234 250.286, 1182.513 250.286 C 1202.447 250.286, 1224.211 222.942, 1225.006 196.901 C 1225.373 184.877, 1225.010 180, 1223.750 180.023 C 1223.063 180.035, 1219.663 181.574, 1216.196 183.443 M 1440 201.236 C 1424.990 206.531, 1414.641 217.273, 1404.522 238.063 C 1398.140 251.177, 1398.288 256.576, 1405.126 260.064 C 1413.995 264.589, 1443.172 265.379, 1452.089 261.336 C 1463.031 256.374, 1467.529 247.739, 1467.373 232 C 1467.093 203.876, 1458.834 194.593, 1440 201.236"/>
  </g>
</svg>
